<?xml version="1.0" encoding="UTF-8"?>
<!DOCTYPE svg PUBLIC "-//W3C//DTD SVG 1.1//EN" "http://www.w3.org/Graphics/SVG/1.1/DTD/svg11.dtd">
<!-- Creator: CorelDRAW 2018 (64 Bit) -->
<svg xmlns="http://www.w3.org/2000/svg" xml:space="preserve" width="144mm" height="130mm" version="1.1" style="shape-rendering:geometricPrecision; text-rendering:geometricPrecision; image-rendering:optimizeQuality; fill-rule:evenodd; clip-rule:evenodd"
viewBox="0 0 1440 1300"
 xmlns:xlink="http://www.w3.org/1999/xlink">
 <defs>
  <style type="text/css">
   <![CDATA[
    .fil0 {fill:#FEFEFE}
   ]]>
  </style>
 </defs>
 <g id="Camada_x0020_1">
  <metadata id="CorelCorpID_0Corel-Layer"/>
  <path class="fil0" d="M7.291 91.211c4.309,16.137 30.748,23.679 60.65,41.655 81.4,48.934 177.969,97.571 261.881,147.342l97.092 54.602c129.566,74.705 82.64,55.875 247.6,28.512 126.424,-20.971 271.808,-53.706 393.763,-71.904 18.398,-2.745 24.039,1.629 25.57,-16.763l-234.321 -40.846c-40.102,-7.583 -76.778,-13.369 -116.931,-20.652 -38.485,-6.98 -103.832,-8.748 -103.832,-33.752 0,-20.39 35.247,-8.537 69.594,-2.565 18.079,3.143 38.408,7.041 59.934,10.621l305.898 53.935c64.763,10.746 51.408,-11.862 51.408,156.731 0,17.388 -10.584,-1.115 -10.584,31.75 0,19.417 7.056,4.087 7.056,38.806 0,12.068 -3.95,12.559 -6.638,25.111l-12.548 82.702c-15.013,93.095 -19.277,86.214 61.519,86.214 15.175,0 19.123,-4.113 31.75,-7.055 0,-19.31 -14.442,-149.024 -21.597,-168.903 -16.544,-45.963 0.431,-19.574 0.431,-70.986 0,-19.762 -8.373,4.525 -10.842,-24.436l0.258 -116.675c19.273,-9.247 240.274,-45.609 271.639,-52.917 -8.351,-12.47 -17.753,-12.935 -32.485,-16.903l-121.374 -37.376c-28.176,-9.449 -53.067,-15.281 -81.139,-24.695 -28.439,-9.537 -52.281,-16.183 -80.305,-25.528 -53.66,-17.892 -103.7,-33.129 -158.684,-49.455 -80.083,-23.777 -117.949,-47.126 -192.763,-47.126l-427.423 38.244c-17.988,1.88 -32.763,3.1 -48.827,4.09l-97.282 8.55c-62.406,8.953 -132.111,6.542 -188.468,19.672zm666.75 518.583c101.087,0 194.715,-11.791 268.605,-38.312 15.952,-5.726 36.755,-15.4 48.125,-25.959 20.611,-19.14 22.315,-17.859 21.988,-55.622 -0.447,-51.693 -0.051,-103.561 -0.051,-155.274 -93.292,21.735 -250.993,46.685 -355.435,67.898 -17.785,3.613 -38.59,7.265 -59.355,11.201 -102.72,19.471 -87.92,4.552 -189.633,-49.704l-72.91 -39.978c0,51.727 0.274,103.528 -0.024,155.246 -0.274,47.453 6.407,66.883 64.952,90.27 68.102,27.205 179.241,40.234 273.738,40.234zm-635 24.694c0,24.841 9.618,62.392 33.091,72.743l681.782 235.613c37.1,12.147 63.93,-17.076 113.661,-37.212l350.001 -165.054c12.274,-6.281 10.302,-1.066 13.854,-14.368 -21.195,-28.928 -73.679,15.055 -133.561,39.3l-339.161 158.256 -3.528 -70.556c0,-21.834 10.079,-26.734 10.583,-49.389l-702.027 -239.888c-11.495,17.166 -24.695,42.113 -24.695,70.555zm1192.389 254c-18.474,-4.933 -0.778,-7.056 -24.694,-7.056 -9.534,0 -117.978,52.281 -138.806,62.278l-85.794 41.206c-21.649,10.902 -208.927,100.455 -226.956,104.655l-3.528 -63.5c0,-26.677 9.186,-35.303 14.111,-56.444 -15.812,-1.316 -30.808,-9.089 -42.842,-13.603l-662.713 -226.286c-25.921,38.71 -32.343,83.976 -8.4,128.344 9.797,18.154 14.86,15.005 34.952,21.493l683.008 233.567c14.408,0.722 61.85,-27.292 77.18,-34.108 14.147,-6.291 25.382,-10.929 38.747,-17.698 69.761,-35.331 166.679,-75.977 235.205,-110.518l76.775 -36.113c16.574,-6.807 29.166,-9.03 33.755,-26.217zm-1192.389 81.139c0,14.391 7.484,39.516 12.718,50.782 10.309,22.195 16.816,19.746 39.745,27.282l681.315 232.38c8.549,0 50.32,-19.861 60.024,-24.642 18.877,-9.3 37.856,-17.123 57.595,-27.073l316.35 -149.316c13.071,-6.389 20.693,-6.431 24.642,-21.219 -15.144,-20.67 -36.392,-5.791 -75.305,12.889l-141.048 67.091c-11.409,5.287 -18.217,7.252 -29.458,12.876 -23.452,11.734 -204.056,102.797 -226.911,104.699l-3.528 -63.5c0,-26.05 10.086,-34.093 10.583,-56.444 -20.421,-1.699 -67.857,-21.48 -87.746,-28.671l-610.754 -207.69c-16.66,0 -28.222,49.867 -28.222,70.556zm45.861 -409.222c17.681,1.471 564.74,192.356 610.755,207.689 124.712,41.557 67.339,34.446 158.795,-2.584l167.66 -79.284c13.34,-6.707 24.031,-10.498 36.457,-16.46 0,-45.306 17.639,-103.535 17.639,-144.639 -13.112,-3.055 -15.838,-6.701 -31.75,-7.056 -2.656,31.914 -29.196,53.929 -54.35,69.123 -126.926,76.67 -532.99,83.274 -654.353,-16.586 -44.12,-36.302 -32.13,-73.628 -32.13,-116.036 -23.238,0.517 -90.77,39.486 -112.935,49.342l-95.932 45.18c-10.05,5.516 -6.74,-0.358 -9.856,11.311z"/>
 </g>
</svg>
